# xmcd CD database file
#
# Track frame offsets:
#	150
#	21252
#	40869
#	59653
#	77139
#	95539
#	114648
#	134690
#	155222
#	174829
#	192305
#
# Disc length: 2856 seconds
#
# Revision: 0
# Processed by: cddbd v1.5PL3 Copyright (c) Steve Scherf et al.
# Submitted via: CDex 1.51
#
DISCID=9a0b260b
DTITLE=Debra Davis - Angels in the Attic
DYEAR=1900
DGENRE=New Age
TTITLE0=Angels in the Attic
TTITLE1=Enemy
TTITLE2=Begin Again
TTITLE3=Moon Upon My Shoulder
TTITLE4=Where Does It Hurt
TTITLE5=In Your Pocket
TTITLE6=I Am Home
TTITLE7=I Don't Wanna Be That Cool
TTITLE8=The Way Things Used To Be
TTITLE9=Childhood
TTITLE10=Walking With Grace
EXTD=
EXTT0=
EXTT1=
EXTT2=
EXTT3=
EXTT4=
EXTT5=
EXTT6=
EXTT7=
EXTT8=
EXTT9=
EXTT10=
PLAYORDER=
